<svg viewBox="380.2074 223.0735 156.5852 167.8529" width="4664.357899089023" height="5000" xmlns="http://www.w3.org/2000/svg" xmlns:xlink="http://www.w3.org/1999/xlink" preserveAspectRatio="none"><defs></defs><style>.aa00yxF744lcolor {fill:#000000;fill-opacity:1;}.aD6z1nYkhcolor {fill:#000000;fill-opacity:1;}.ajBG27VzS5colors-0 {fill:#000000;fill-opacity:1;}.ajBG27VzS5colors-1 {fill:#3F3F3F;fill-opacity:1;}.aJZTTCAjuAcolor {fill:#000000;fill-opacity:1;}.ashadownYyuf6wfiL-floo {flood-color:#000000;flood-opacity:1;}.asyfeF0lQ4color {fill:#000000;fill-opacity:1;}.atBXipXk0bfillColor {fill:#000000;fill-opacity:1;}.atBXipXk0bstrokeColor-str {stroke:#3F3F3F;stroke-opacity:1;}.axiwYMMQmD0filter-floo {flood-color:#000000;flood-opacity:1;}.icon1 {fill:#000000;fill-opacity:1;}.icon2 {fill:#3F3F3F;fill-opacity:1;}.icon3 {fill:#797979;fill-opacity:1;}.icon4 {fill:#000000;fill-opacity:1;}.icon5 {fill:#000000;fill-opacity:1;}.icon6 {fill:#000000;fill-opacity:1;}.icon7 {fill:#000000;fill-opacity:1;}.icon8 {fill:#000000;fill-opacity:1;}</style><defs>
      <filter
        x="-1000"
        y="-1000"
        width="5000"
        height="5000"
        id="oykaITFIV"
        filterUnits="userSpaceOnUse"
        primitiveUnits="userSpaceOnUse"
        color-interpolation-filters="sRGB">
        <feMerge><feMergeNode in="SourceGraphic" /></feMerge>
      </filter></defs><g opacity="0.2" transform="rotate(0 380.2074 223.0735)">
<svg width="152.1865" height="152.087" x="380.2074" y="223.0735" version="1.1" preserveAspectRatio="none" viewBox="0 0 152.1865 152.087">
  <rect x="0" y="0" width="152.1865" height="152.087" class="atBXipXk0bfillColor atBXipXk0bstrokeColor-str" style="stroke-width:0;" rx="0px" ry="0px" />
</svg>
</g><g opacity="1" transform="rotate(0 380.5416 381.471)">
<svg width="156.251" height="9.4554" x="380.5416" y="381.471" version="1.1" preserveAspectRatio="none" viewBox="0.4472 -26.6961 448.3496 27.131400000000003">
  <g transform="matrix(1 0 0 1 0 0)" class="aD6z1nYkhcolor"><path d="M16.77-4.47L16.74-0.84L0.46-0.98L0.67-26.46L16.96-26.33L16.93-22.67L4.68-22.78L4.62-15.75L14.17-15.67L14.14-12.01L4.59-12.09L4.53-4.58L16.77-4.47Z M39.73-18.87L39.70-15.22L32.61-15.27L32.53-4.35L36.69-4.32L36.66-0.69L24.43-0.78L24.46-4.41L28.49-4.38L28.57-15.30L24.54-15.33L24.57-18.98L28.59-18.95Q28.62-22.70 30.94-24.67Q33.26-26.63 37.19-26.60L37.19-26.60Q37.77-26.60 38.44-26.53Q39.10-26.47 39.78-26.39L39.78-26.39L39.76-22.83Q38.59-22.96 37.63-22.97L37.63-22.97Q36.07-22.98 35.11-22.76Q34.15-22.54 33.61-22.05Q33.07-21.55 32.86-20.77Q32.65-20.00 32.64-18.92L32.64-18.92L39.73-18.87Z M61.60-18.72L61.57-15.07L54.48-15.11L54.41-4.20L58.57-4.17L58.55-0.54L46.32-0.62L46.35-4.25L50.37-4.22L50.44-15.14L46.42-15.17L46.44-18.82L50.47-18.79Q50.49-22.54 52.81-24.51Q55.13-26.48 59.05-26.45L59.05-26.45Q59.64-26.45 60.30-26.38Q60.97-26.32 61.65-26.24L61.65-26.24L61.62-22.68Q60.45-22.81 59.50-22.82L59.50-22.82Q57.93-22.83 56.98-22.61Q56.02-22.39 55.48-21.90Q54.94-21.40 54.73-20.62Q54.52-19.84 54.51-18.77L54.51-18.77L61.60-18.72Z M84.17-7.94L68.91-8.03Q69.20-6.15 70.68-4.90Q72.17-3.66 74.69-3.64L74.69-3.64Q76.66-3.63 78.12-4.24Q79.58-4.84 80.64-5.85L80.64-5.85L82.69-2.99Q80.92-1.24 78.96-0.61Q76.99 0.03 74.67 0.01L74.67 0.01Q72.56-0.00 70.75-0.71Q68.93-1.43 67.61-2.70Q66.29-3.96 65.55-5.71Q64.81-7.45 64.82-9.58L64.82-9.58Q64.83-11.65 65.54-13.39Q66.24-15.14 67.51-16.41Q68.77-17.68 70.54-18.38Q72.30-19.08 74.43-19.07L74.43-19.07Q76.63-19.06 78.43-18.30Q80.22-17.53 81.49-16.10Q82.76-14.67 83.47-12.60Q84.18-10.54 84.17-7.94L84.17-7.94ZM69.11-11.58L79.62-11.52Q79.32-13.28 77.82-14.36Q76.32-15.43 74.41-15.44L74.41-15.44Q72.49-15.45 70.96-14.40Q69.43-13.34 69.11-11.58L69.11-11.58Z M102.52-5.74L104.58-2.88Q102.81-1.13 100.86-0.49Q98.92 0.14 96.65 0.13L96.65 0.13Q94.36 0.12 92.50-0.57Q90.64-1.27 89.35-2.51Q88.06-3.76 87.37-5.52Q86.69-7.28 86.70-9.45L86.70-9.45Q86.71-11.52 87.41-13.29Q88.11-15.05 89.30-16.30Q90.49-17.56 92.09-18.26Q93.70-18.97 95.50-18.96L95.50-18.96Q97.37-18.95 98.75-18.16Q100.14-17.37 100.75-15.86L100.75-15.86L100.77-18.50L104.38-18.48L104.34-10.01L100.72-10.02Q100.74-12.43 99.43-13.87Q98.11-15.31 96.01-15.32L96.01-15.32Q95.17-15.33 94.24-14.99Q93.31-14.65 92.53-13.93Q91.76-13.21 91.24-12.10Q90.73-10.99 90.72-9.43L90.72-9.43Q90.71-7.91 91.20-6.80Q91.68-5.70 92.47-4.98Q93.25-4.26 94.34-3.89Q95.42-3.53 96.57-3.52L96.57-3.52Q98.54-3.51 100.00-4.12Q101.46-4.73 102.52-5.74L102.52-5.74Z M123.80-6.80L127.35-5.98Q127.03-3.11 125.08-1.43Q123.13 0.25 120.22 0.24L120.22 0.24Q118.62 0.23 117.29-0.30Q115.97-0.84 115.03-1.78Q114.10-2.72 113.59-4.04Q113.07-5.36 113.08-6.92L113.08-6.92L113.11-14.79L108.99-14.81L109.01-18.46L113.13-18.44L113.16-25.73L117.20-25.71L117.17-18.43L124.81-18.40L124.79-14.74L117.16-14.78L117.12-6.90Q117.12-5.15 117.97-4.28Q118.83-3.42 120.23-3.42L120.23-3.42Q121.95-3.41 122.80-4.40Q123.64-5.39 123.80-6.80L123.80-6.80Z M142.46-25.62L142.45-20.70L137.53-20.71L137.54-25.64L142.46-25.62ZM146.10-3.75L146.09-0.12L133.87-0.16L133.88-3.79L137.90-3.78L137.94-14.70L133.91-14.71L133.92-18.36L141.99-18.34L141.94-3.77L146.10-3.75Z M166.64-18.27L170.95-18.26L164.19-0.07L159.42-0.08L152.75-18.30L157.07-18.29L161.84-4.51L166.64-18.27Z M193.57-7.58L178.32-7.60Q178.61-5.72 180.10-4.48Q181.59-3.24 184.11-3.24L184.11-3.24Q186.08-3.23 187.54-3.84Q188.99-4.46 190.05-5.47L190.05-5.47L192.12-2.62Q190.36-0.86 188.39-0.22Q186.43 0.42 184.10 0.42L184.10 0.42Q181.99 0.41 180.18-0.29Q178.36-1.00 177.04-2.26Q175.71-3.52 174.96-5.26Q174.21-7.00 174.22-9.13L174.22-9.13Q174.22-11.20 174.92-12.95Q175.61-14.69 176.87-15.97Q178.14-17.25 179.89-17.96Q181.65-18.67 183.78-18.67L183.78-18.67Q185.99-18.66 187.78-17.91Q189.58-17.15 190.86-15.72Q192.13-14.30 192.85-12.23Q193.57-10.17 193.57-7.58L193.57-7.58ZM178.50-11.15L189.00-11.14Q188.69-12.90 187.19-13.96Q185.69-15.03 183.78-15.03L183.78-15.03Q181.86-15.04 180.34-13.97Q178.81-12.91 178.50-11.15L178.50-11.15Z M208.05-4.93L208.04-0.01L203.12-0.01L203.12-4.93L208.05-4.93Z M257.50-3.65L257.50-0.02L241.21-0.00L241.19-25.49L257.47-25.51L257.48-21.86L245.23-21.84L245.24-14.81L254.79-14.82L254.79-11.17L245.24-11.16L245.25-3.64L257.50-3.65Z M280.31-18.26L280.32-14.61L273.23-14.60L273.25-3.68L277.41-3.69L277.42-0.05L265.19-0.03L265.18-3.66L269.21-3.67L269.19-14.59L265.16-14.58L265.16-18.23L269.18-18.24Q269.17-21.99 271.47-23.98Q273.77-25.97 277.70-25.97L277.70-25.97Q278.29-25.97 278.95-25.92Q279.61-25.86 280.30-25.78L280.30-25.78L280.31-22.23Q279.13-22.34 278.18-22.34L278.18-22.34Q276.61-22.34 275.66-22.11Q274.70-21.88 274.16-21.39Q273.63-20.89 273.42-20.10Q273.22-19.32 273.22-18.25L273.22-18.25L280.31-18.26Z M302.18-18.32L302.19-14.67L295.10-14.65L295.13-3.73L299.29-3.74L299.30-0.11L287.08-0.07L287.07-3.71L291.09-3.72L291.06-14.64L287.04-14.63L287.03-18.28L291.05-18.29Q291.04-22.04 293.34-24.03Q295.64-26.02 299.57-26.03L299.57-26.03Q300.15-26.03 300.82-25.97Q301.48-25.91 302.16-25.84L302.16-25.84L302.17-22.28Q301.00-22.40 300.04-22.40L300.04-22.40Q298.48-22.39 297.53-22.16Q296.57-21.94 296.03-21.44Q295.50-20.94 295.29-20.16Q295.09-19.37 295.09-18.30L295.09-18.30L302.18-18.32Z M317.39-25.66L317.40-20.73L312.48-20.72L312.47-25.64L317.39-25.66ZM321.17-3.81L321.19-0.18L308.96-0.14L308.95-3.77L312.97-3.78L312.93-14.70L308.91-14.69L308.90-18.34L316.96-18.37L317.01-3.80L321.17-3.81Z M343.23-5.72L345.31-2.88Q343.56-1.11 341.62-0.46Q339.68 0.19 337.41 0.20L337.41 0.20Q335.13 0.21 333.26-0.46Q331.39-1.14 330.09-2.37Q328.78-3.61 328.08-5.36Q327.38-7.12 327.37-9.29L327.37-9.29Q327.36-11.36 328.05-13.13Q328.73-14.90 329.91-16.16Q331.08-17.43 332.68-18.15Q334.28-18.87 336.08-18.87L336.08-18.87Q337.95-18.88 339.34-18.11Q340.73-17.33 341.36-15.83L341.36-15.83L341.35-18.47L344.97-18.48L345.00-10.01L341.39-9.99Q341.38-12.39 340.06-13.82Q338.73-15.25 336.62-15.24L336.62-15.24Q335.78-15.24 334.86-14.89Q333.93-14.55 333.16-13.82Q332.39-13.10 331.89-11.98Q331.39-10.87 331.39-9.30L331.39-9.30Q331.40-7.78 331.89-6.68Q332.39-5.58 333.18-4.87Q333.97-4.16 335.06-3.80Q336.15-3.45 337.30-3.45L337.30-3.45Q339.27-3.46 340.72-4.08Q342.17-4.70 343.23-5.72L343.23-5.72Z M361.12-25.85L361.14-20.93L356.22-20.90L356.20-25.83L361.12-25.85ZM364.94-4.02L364.96-0.38L352.73-0.32L352.72-3.95L356.74-3.97L356.68-14.89L352.66-14.87L352.64-18.52L360.71-18.56L360.78-3.99L364.94-4.02Z M390.49-8.09L375.24-8.00Q375.54-6.13 377.05-4.90Q378.55-3.66 381.07-3.68L381.07-3.68Q383.04-3.69 384.49-4.32Q385.94-4.94 386.99-5.96L386.99-5.96L389.08-3.12Q387.33-1.35 385.37-0.70Q383.41-0.04 381.09-0.03L381.09-0.03Q378.98-0.01 377.16-0.71Q375.34-1.40 374.00-2.65Q372.67-3.90 371.90-5.64Q371.14-7.37 371.13-9.50L371.13-9.50Q371.12-11.57 371.80-13.32Q372.48-15.07 373.73-16.36Q374.99-17.65 376.74-18.37Q378.49-19.09 380.62-19.11L380.62-19.11Q382.83-19.12 384.63-18.38Q386.43-17.64 387.72-16.22Q389.01-14.80 389.74-12.75Q390.48-10.69 390.49-8.09L390.49-8.09ZM375.39-11.56L385.90-11.62Q385.58-13.38 384.07-14.43Q382.56-15.49 380.64-15.47L380.64-15.47Q378.73-15.46 377.21-14.39Q375.70-13.32 375.39-11.56L375.39-11.56Z M410.63-11.90L410.71-0.67L406.66-0.64L406.59-11.87Q406.57-14.00 405.77-14.82Q404.96-15.63 403.44-15.62L403.44-15.62Q401.19-15.61 399.79-13.78Q398.38-11.95 398.40-8.75L398.40-8.75L398.46-0.59L394.42-0.56L394.29-18.76L398.34-18.79L398.37-14.22Q398.96-16.59 400.59-17.92Q402.22-19.25 404.62-19.26L404.62-19.26Q407.41-19.28 409.01-17.48Q410.60-15.67 410.63-11.90L410.63-11.90Z M430.14-7.42L433.70-6.65Q433.41-3.78 431.48-2.07Q429.55-0.37 426.64-0.35L426.64-0.35Q425.04-0.33 423.71-0.85Q422.37-1.37 421.43-2.30Q420.48-3.23 419.96-4.54Q419.43-5.86 419.42-7.42L419.42-7.42L419.36-15.29L415.23-15.26L415.21-18.91L419.33-18.94L419.27-26.23L423.31-26.26L423.37-18.97L431.01-19.03L431.04-15.38L423.40-15.32L423.46-7.45Q423.47-5.69 424.34-4.84Q425.21-3.99 426.61-4.00L426.61-4.00Q428.33-4.01 429.16-5.01Q429.99-6.02 430.14-7.42L430.14-7.42Z M448.75-5.90L448.80-0.98L443.87-0.94L443.83-5.86L448.75-5.90Z"/></g>
</svg>
</g><g opacity="0.2" transform="rotate(0 380.5416 223.3579)">
<svg width="151.5182" height="151.5182" x="380.5416" y="223.3579" version="1.1" preserveAspectRatio="none" viewBox="34 34 132 132">
  <g transform="matrix(1 0 0 1 0 0)" ><g><path d="M166 166h-28.034l-19.741-83.695L34 62.044V34h132v132z" data-color="1" class="icon1"></path><path d="M137.847 166h-26.771l-30.874-46.202L34 88.991V62.153h103.847V166z" data-color="2" class="icon2"></path><path d="M110.964 166H67.418l-23.97-9.448L34 132.844V89.036h76.964V166z" data-color="3" class="icon3"></path><path d="M67.437 132.563V166H34v-33.437h33.437z" data-color="4" class="icon4"></path></g></g>
</svg>
</g><g opacity="1" transform="rotate(0 381.2074 224.3579)">
<svg width="67.1765" height="28.1068" x="381.2074" y="224.3579" version="1.1" preserveAspectRatio="none" viewBox="0 -25.4883 60.918000000000006 25.4883">
  <g transform="matrix(1 0 0 1 0 0)" class="asyfeF0lQ4color"><path d="M18.16-25.49L18.16-16.19L14.55-16.19L14.55-21.84L11.11-21.84L11.11-3.63L15.16-3.63L15.16 0L3.05 0L3.05-3.63L7.07-3.63L7.07-21.84L3.59-21.84L3.59-16.19L0-16.19L0-25.49L18.16-25.49Z M39.08-25.49L39.08 0L35.04 0L35.04-11.15L26.84-11.15L26.84 0L22.79 0L22.79-25.49L26.84-25.49L26.84-14.80L35.04-14.80L35.04-25.49L39.08-25.49Z M60.92-3.63L60.92 0L44.63 0L44.63-25.49L60.92-25.49L60.92-21.84L48.67-21.84L48.67-14.80L58.22-14.80L58.22-11.15L48.67-11.15L48.67-3.63L60.92-3.63Z"/></g>
</svg>
</g><g opacity="1" transform="rotate(0 381.1119 257.7727)">
<svg width="110.0502" height="28" x="381.1119" y="257.7727" version="1.1" preserveAspectRatio="none" viewBox="0.957 -25.918 103.6329 26.3672">
  <g transform="matrix(1 0 0 1 0 0)" class="aa00yxF744lcolor"><path d="M17.25-3.63L17.25 0L0.96 0L0.96-25.49L5-25.49L5-3.63L17.25-3.63Z M39.08-3.63L39.08 0L22.79 0L22.79-25.49L39.08-25.49L39.08-21.84L26.84-21.84L26.84-14.80L36.39-14.80L36.39-11.15L26.84-11.15L26.84-3.63L39.08-3.63Z M62.87-13.32L62.87-12.68Q62.87-10.08 62.35-7.71Q61.84-5.35 60.65-3.54Q59.47-1.72 57.61-0.63Q55.74 0.45 53.07 0.45L53.07 0.45Q50.39 0.45 48.54-0.65Q46.68-1.76 45.50-3.57Q44.32-5.39 43.80-7.77Q43.28-10.16 43.28-12.71L43.28-12.71Q43.28-15.27 43.80-17.66Q44.32-20.04 45.50-21.88Q46.68-23.71 48.54-24.81Q50.39-25.92 53.07-25.92L53.07-25.92Q53.83-25.92 54.63-25.70Q55.43-25.49 56.15-25.05Q56.88-24.61 57.43-23.96Q57.99-23.32 58.22-22.48L58.22-22.48L58.22-25.49L61.88-25.49L61.88-16.45L58.22-16.45Q58.22-17.64 57.85-18.70Q57.48-19.77 56.80-20.57Q56.11-21.37 55.16-21.83Q54.20-22.29 53.07-22.29L53.07-22.29Q51.35-22.29 50.25-21.43Q49.16-20.57 48.50-19.20Q47.83-17.83 47.57-16.13Q47.30-14.43 47.30-12.71L47.30-12.71Q47.30-11.00 47.57-9.30Q47.83-7.60 48.48-6.24Q49.12-4.88 50.23-4.04Q51.35-3.20 53.07-3.20L53.07-3.20Q55.55-3.20 57.07-4.79Q58.59-6.37 59.16-9.69L59.16-9.69L53.79-9.69L53.79-13.32L62.87-13.32Z M84.90 0L80.66 0L78.83-6.07L70.39-6.07L68.59 0L64.36 0L72.30-25.49L76.95-25.49L84.90 0ZM74.63-20.16L71.46-9.65L77.75-9.65L74.63-20.16Z M104.59-3.63L104.59 0L88.30 0L88.30-25.49L92.34-25.49L92.34-3.63L104.59-3.63Z"/></g>
</svg>
</g><g opacity="1" transform="rotate(0 381.7585 288.5647)">
<svg width="86.8621" height="28" x="381.7585" y="288.5647" version="1.1" preserveAspectRatio="none" viewBox="0.957 -25.918 81.79690000000001 26.3672">
  <g transform="matrix(1 0 0 1 0 0)" class="aJZTTCAjuAcolor"><path d="M18.16-6.99L18.16-6.99Q18.16-3.52 15.80-1.76Q13.44 0 9.08 0L9.08 0L0.96 0L0.96-25.49L8.63-25.49Q10.23-25.49 11.78-25.22Q13.32-24.96 14.54-24.24Q15.76-23.52 16.52-22.22Q17.29-20.92 17.29-18.85L17.29-18.85Q17.29-16.91 16.30-15.31Q15.31-13.71 13.32-13.01L13.32-13.01Q15.76-12.25 16.96-10.88Q18.16-9.51 18.16-6.99ZM13.28-18.32L13.28-18.32Q13.28-19.43 12.86-20.14Q12.44-20.84 11.78-21.22Q11.11-21.60 10.29-21.72Q9.47-21.84 8.63-21.84L8.63-21.84L5-21.84L5-14.80L8.63-14.80Q9.47-14.80 10.29-14.92Q11.11-15.04 11.78-15.42Q12.44-15.80 12.86-16.50Q13.28-17.21 13.28-18.32ZM14.16-7.40L14.16-7.40Q14.16-9.32 12.82-10.23Q11.48-11.15 9.08-11.15L9.08-11.15L5-11.15L5-3.63L9.08-3.63Q11.48-3.63 12.82-4.56Q14.16-5.49 14.16-7.40Z M41.23 0L36.99 0L35.16-6.07L26.72-6.07L24.92 0L20.68 0L28.63-25.49L33.28-25.49L41.23 0ZM30.96-20.16L27.79-9.65L34.08-9.65L30.96-20.16Z M61.23-6.99L61.23-6.99Q61.23-5.23 60.63-3.86Q60.04-2.48 59.01-1.52Q57.99-0.57 56.57-0.06Q55.16 0.45 53.55 0.45L53.55 0.45Q51.76 0.45 50.31-0.20Q48.87-0.84 47.83-2.32L47.83-2.32L47.83 0L44.20 0L44.20-8.32L47.83-8.32Q47.83-7.07 48.27-6.11Q48.71-5.16 49.43-4.50Q50.16-3.85 51.11-3.51Q52.07-3.16 53.14-3.16L53.14-3.16Q54.96-3.16 56.07-4.00Q57.19-4.84 57.19-6.68L57.19-6.68Q57.19-7.64 56.85-8.32Q56.50-9.00 55.87-9.54Q55.23-10.08 54.32-10.48Q53.40-10.88 52.23-11.33L52.23-11.33Q50.84-11.80 49.45-12.38Q48.07-12.97 46.97-13.83Q45.88-14.69 45.20-15.95Q44.51-17.21 44.51-19.12L44.51-19.12Q44.51-20.80 45.13-22.06Q45.74-23.32 46.77-24.18Q47.79-25.04 49.15-25.48Q50.51-25.92 52.03-25.92L52.03-25.92Q53.79-25.92 55.05-25.18Q56.31-24.43 56.99-23.20L56.99-23.20L56.99-25.49L60.63-25.49L60.63-17.56L56.99-17.56Q56.99-19.80 55.81-21.06Q54.63-22.32 52.64-22.32L52.64-22.32Q50.88-22.32 49.72-21.50Q48.55-20.68 48.55-19.20L48.55-19.20Q48.55-18.44 48.86-17.90Q49.16-17.36 49.74-16.92Q50.31-16.48 51.19-16.10Q52.07-15.72 53.22-15.27L53.22-15.27Q54.67-14.77 56.09-14.12Q57.52-13.48 58.65-12.54Q59.79-11.60 60.51-10.26Q61.23-8.93 61.23-6.99Z M82.75-3.63L82.75 0L66.46 0L66.46-25.49L82.75-25.49L82.75-21.84L70.51-21.84L70.51-14.80L80.06-14.80L80.06-11.15L70.51-11.15L70.51-3.63L82.75-3.63Z"/></g>
</svg>
</g><g opacity="0.2" transform="rotate(0 459.9845 320.2031)">
<svg width="72.0753" height="54.9574" x="459.9845" y="320.2031" version="1.1" preserveAspectRatio="none" viewBox="20 39 160 122">
  <g transform="matrix(1 0 0 1 0 0)" ><g><path d="M179.911 127.086v11.085h-20.61v-11.085h20.61z" data-color="1" class="ajBG27VzS5colors-0"></path><path d="M179.911 106.586v11.085h-20.61v-11.085h20.61z" data-color="1" class="ajBG27VzS5colors-0"></path><path d="M41.727 83.486v11.085H20V83.486h21.727z" data-color="1" class="ajBG27VzS5colors-0"></path><path d="M41.727 62.987v11.085H20V62.987h21.727z" data-color="1" class="ajBG27VzS5colors-0"></path><path d="M101.048 74.073V62.987h58.253V39H41.727v67.586h59.577v11.085H41.727v9.415h59.577v11.085H41.727V161h117.574V94.571h-58.253V83.486h58.253v-9.413h-58.253z" data-color="2" class="ajBG27VzS5colors-1"></path><path d="M180 83.486v11.085h-78.952V83.486H180z" data-color="1" class="ajBG27VzS5colors-0"></path><path d="M180 62.987v11.085h-78.952V62.987H180z" data-color="1" class="ajBG27VzS5colors-0"></path><path d="M101.304 127.086v11.085H20v-11.085h81.304z" data-color="1" class="ajBG27VzS5colors-0"></path><path d="M101.304 106.586v11.085H20v-11.085h81.304z" data-color="1" class="ajBG27VzS5colors-0"></path></g></g>
</svg>
</g></svg>